<?xml version="1.0" encoding="utf-8"?>
<!-- Generator: Adobe Illustrator 21.0.0, SVG Export Plug-In . SVG Version: 6.00 Build 0)  -->
<svg version="1.1" id="Layer_1" xmlns="http://www.w3.org/2000/svg" xmlns:xlink="http://www.w3.org/1999/xlink" x="0px" y="0px"
	 width="500px" height="500px" viewBox="0 0 500 500" style="enable-background:new 0 0 500 500;" xml:space="preserve">
<style type="text/css">
	.st0{fill:url(#SVGID_1_);}
</style>
<linearGradient id="SVGID_1_" gradientUnits="userSpaceOnUse" x1="50.334" y1="199.3657" x2="467.9963" y2="305.228">
	<stop  offset="0" style="stop-color:#85A8E2"/>
	<stop  offset="0.287" style="stop-color:#7FCCDC"/>
	<stop  offset="0.5395" style="stop-color:#7BE7D7"/>
	<stop  offset="0.6714" style="stop-color:#6FDDB3"/>
	<stop  offset="0.8015" style="stop-color:#66D597"/>
	<stop  offset="0.9153" style="stop-color:#61D186"/>
	<stop  offset="1" style="stop-color:#5FCF80"/>
</linearGradient>
<path class="st0" d="M37.5,250c0-30.8,6.6-60.1,18.4-86.5l101.4,277.7C86.4,406.8,37.5,334.1,37.5,250z M250,462.5
	c-20.9,0-41-3.1-60-8.7l63.8-185.3l65.3,179c0.4,1.1,1,2,1.5,2.9C298.5,458.2,274.7,462.5,250,462.5z M279.3,150.4
	c12.8-0.7,24.3-2,24.3-2c11.5-1.4,10.1-18.2-1.4-17.5c0,0-34.4,2.7-56.6,2.7c-20.9,0-56-2.7-56-2.7c-11.5-0.7-12.8,16.8-1.3,17.5
	c0,0,10.8,1.3,22.3,2l33.1,90.7l-46.5,139.5l-77.4-230.2c12.8-0.7,24.3-2,24.3-2c11.4-1.4,10.1-18.2-1.4-17.5c0,0-34.4,2.7-56.6,2.7
	c-4,0-8.7-0.1-13.7-0.3c38-57.7,103.3-95.8,177.6-95.8c55.3,0,105.7,21.2,143.5,55.8c-0.9-0.1-1.8-0.2-2.8-0.2
	c-20.9,0-35.7,18.2-35.7,37.7c0,17.5,10.1,32.3,20.9,49.8c8.1,14.2,17.5,32.3,17.5,58.6c0,18.2-7,39.3-16.2,68.7l-21.2,70.8
	L279.3,150.4z M436.5,148c16.6,30.3,26,65,26,101.9c0,78.4-42.5,146.8-105.7,183.7L421.7,246c12.1-30.3,16.2-54.6,16.2-76.1
	C437.9,162.1,437.4,154.8,436.5,148z"/>
</svg>
